# xmcd
#
# Track frame offsets:
# 182
# 12597
# 25245
# 37307
# 50232
# 61970
# 73260
# 87655
# 98417
# 108662
# 123332
# 136150
# 149642
# 159812
# 172105
# 184720
#
# Disc length: 2616 seconds
#
#
# Revision: 4
# Processed by: cddbd v1.5.2PL0 Copyright (c) Steve Scherf et al.
# Submitted via: FreeRIP 2.96 
#
DISCID=ee0a3610
DTITLE=Porter Wagoner - RCA Country Legends
DYEAR=1900
DGENRE=Country
TTITLE0=Company's Comin
TTITLE1=A Satisfied Mind
TTITLE2=A Good Time Had By All
TTITLE3=Midnight
TTITLE4=Misery Loves Company
TTITLE5=Cold Drink Waters
TTITLE6=Legend Of The Big Steeple
TTITLE7=Green, Green, Green Of Home
TTITLE8=Everything She Touches Gets The Blues
TTITLE9=The Cold Hard Facts Of Life
TTITLE10=The Carroll County Accident
TTITLE11=Confessions Of A Proken Man
TTITLE12=Howdy Neighbor Howdy
TTITLE13=The Rubber Room
TTITLE14=The First Mrs. Jones
TTITLE15=The Life Of The Party
EXTD=
EXTT0=
EXTT1=
EXTT2=
EXTT3=
EXTT4=
EXTT5=
EXTT6=
EXTT7=
EXTT8=
EXTT9=
EXTT10=
EXTT11=
EXTT12=
EXTT13=
EXTT14=
EXTT15=
PLAYORDER=
